<?xml version="1.0" encoding="utf-8"?>
<!-- Svg Vector Icons : http://www.onlinewebfonts.com/icon -->
<!DOCTYPE svg PUBLIC "-//W3C//DTD SVG 1.1//EN" "http://www.w3.org/Graphics/SVG/1.1/DTD/svg11.dtd">
<svg version="1.1" xmlns="http://www.w3.org/2000/svg" xmlns:xlink="http://www.w3.org/1999/xlink" x="0px" y="0px" viewBox="0 0 256 256" enable-background="new 0 0 256 256" xml:space="preserve">
<metadata> Svg Vector Icons : http://www.onlinewebfonts.com/icon </metadata>
<g><g><path fill="#000000" d="M128,143.4c-8.5,0-15.4,6.9-15.4,15.4c0,4.6,2,8.7,5.1,11.5v14.2c0,5.7,4.6,10.3,10.3,10.3c5.7,0,10.3-4.6,10.3-10.3v-14.2c3.2-2.8,5.1-6.9,5.1-11.5C143.4,150.3,136.5,143.4,128,143.4L128,143.4L128,143.4z M199.8,97.2h-10.3V71.6c0-34-27.5-61.6-61.6-61.6c-34,0-61.6,27.5-61.6,61.6v25.6H56.2c-14.2,0-25.6,11.5-25.6,25.6v97.5c0,14.2,11.5,25.6,25.6,25.6h143.6c14.2,0,25.6-11.5,25.6-25.6v-97.5C225.5,108.7,214,97.2,199.8,97.2L199.8,97.2L199.8,97.2z M128,20.3c28.3,0,51.3,23,51.3,51.3v25.6H76.7V71.6l0,0C76.7,43.2,99.7,20.3,128,20.3L128,20.3L128,20.3z M215.2,220.4c0,8.5-6.9,15.4-15.4,15.4H56.2c-8.5,0-15.4-6.9-15.4-15.4v-97.5c0-8.5,6.9-18.4,15.4-18.4h143.6c8.5,0,15.4,9.8,15.4,18.4V220.4L215.2,220.4L215.2,220.4z"/></g></g>
</svg>